<?xml version="1.0" standalone="no"?>
<!DOCTYPE svg PUBLIC "-//W3C//DTD SVG 20010904//EN"
 "http://www.w3.org/TR/2001/REC-SVG-20010904/DTD/svg10.dtd">
<svg version="1.0" xmlns="http://www.w3.org/2000/svg"
 width="300.000000pt" height="300.000000pt" viewBox="0 0 300.000000 300.000000"
 preserveAspectRatio="xMidYMid meet">
<metadata>
Created by potrace 1.10, written by Peter Selinger 2001-2011
</metadata>
<g transform="translate(0.000000,300.000000) scale(0.100000,-0.100000)"
fill="#000000" stroke="none">
<path d="M1173 2187 c-56 -50 -123 -84 -264 -131 -66 -21 -66 -22 -50 -43 19
-23 92 -63 114 -63 8 0 34 18 59 39 25 22 64 47 86 57 41 16 56 34 29 34 -18
0 -67 -24 -67 -32 0 -5 -9 -8 -20 -8 -10 0 -23 -6 -27 -13 -4 -7 -22 -22 -38
-34 -27 -19 -33 -19 -50 -7 -10 8 -27 14 -38 14 -33 0 -13 23 34 38 24 8 46
18 49 23 3 4 18 11 33 14 15 4 27 11 27 17 0 5 4 7 9 3 11 -6 61 15 61 27 0 4
7 8 15 8 8 0 28 14 46 31 25 24 37 29 58 24 63 -16 69 -54 23 -140 -12 -22
-22 -48 -22 -57 0 -10 -4 -18 -10 -18 -5 0 -10 -9 -10 -19 0 -11 -5 -23 -11
-27 -6 -3 -19 -20 -29 -37 -17 -27 -17 -33 -4 -59 8 -15 23 -28 33 -28 10 0
31 -11 47 -25 16 -14 33 -25 37 -25 12 0 61 33 69 46 5 7 17 10 28 7 11 -3 20
0 20 6 0 18 15 13 49 -17 30 -26 31 -29 15 -43 -13 -11 -18 -11 -21 -2 -4 10
-8 9 -20 -2 -13 -14 -53 -21 -97 -16 -11 1 -17 -2 -13 -5 4 -4 2 -12 -3 -19
-11 -14 90 -1 150 19 49 16 49 39 0 88 l-41 42 -72 -39 -73 -38 -26 26 c-15
15 -38 27 -53 27 -33 0 -32 12 6 66 40 58 111 229 107 257 -3 21 -41 48 -85
61 -16 5 -31 -2 -60 -27z"/>
<path d="M2025 2134 c18 -61 19 -100 2 -107 -18 -7 -218 28 -245 42 -12 6 -26
28 -32 51 -6 22 -14 40 -18 40 -4 0 -27 -26 -51 -58 -24 -32 -59 -69 -78 -82
-29 -21 -33 -30 -29 -57 6 -45 35 -102 57 -114 33 -17 119 65 119 114 0 17 14
18 125 6 82 -9 444 -91 471 -107 8 -5 6 -22 -7 -62 -10 -30 -16 -56 -15 -58 2
-1 51 16 110 39 123 49 126 54 70 136 -39 57 -48 61 -82 37 -21 -14 -32 -13
-162 22 -77 21 -140 42 -140 46 0 5 14 14 30 19 32 12 36 20 20 48 -12 23 -96
77 -132 86 l-28 7 15 -48z m92 -32 c10 -11 12 -12 7 -2 -6 12 -4 13 6 3 21
-20 21 -45 -1 -50 -22 -6 -26 -45 -6 -60 6 -6 30 -14 52 -18 22 -5 47 -10 55
-12 8 -3 27 -7 43 -10 15 -3 27 -8 27 -12 0 -4 8 -7 18 -8 9 0 33 -3 52 -6 19
-3 46 -1 60 5 21 8 29 5 52 -21 34 -38 38 -81 8 -81 -11 0 -20 -5 -20 -12 0
-6 -3 -8 -7 -5 -3 4 -16 1 -27 -6 -30 -19 -76 -20 -76 -3 0 8 5 16 11 18 7 2
7 12 0 31 -11 29 -72 63 -97 53 -7 -3 -14 -1 -16 4 -2 6 -16 11 -33 13 -16 2
-37 6 -45 9 -34 12 -191 43 -202 40 -5 -1 -8 2 -8 7 0 4 -30 9 -67 10 -37 1
-73 7 -80 12 -26 22 -67 0 -101 -54 -18 -29 -43 -59 -54 -66 -19 -12 -23 -11
-34 5 -8 11 -17 24 -22 29 -26 31 16 125 55 125 7 0 13 5 13 10 0 6 9 20 19
31 18 20 20 20 40 3 12 -10 21 -24 21 -31 0 -7 6 -12 13 -10 6 1 11 -4 9 -12
-3 -12 0 -12 12 -2 13 11 17 10 22 -3 3 -9 10 -16 16 -16 5 0 7 4 4 9 -6 9 9
8 116 -10 74 -12 79 -12 92 7 16 20 18 104 3 104 -4 0 -6 4 -2 10 8 12 54 -5
72 -28z"/>
<path d="M1173 2085 c0 -8 4 -15 9 -15 4 0 8 4 8 9 0 6 -4 12 -8 15 -5 3 -9
-1 -9 -9z"/>
<path d="M1211 2084 c0 -11 3 -14 6 -6 3 7 2 16 -1 19 -3 4 -6 -2 -5 -13z"/>
<path d="M608 2070 c-17 -10 -17 -12 2 -38 20 -27 60 -176 60 -223 0 -30 -35
-50 -125 -69 -33 -7 -63 -16 -67 -19 -13 -11 42 -91 66 -97 38 -9 144 54 118
70 -6 3 -12 0 -15 -7 -2 -7 -28 -18 -55 -26 -51 -12 -78 -9 -67 10 4 5 -1 12
-9 15 -27 10 -18 22 27 33 149 35 150 36 141 141 -3 41 -9 77 -13 80 -12 9
-39 110 -31 115 14 9 133 -13 140 -25 9 -15 0 -61 -11 -54 -7 4 -6 -71 2 -86
1 -3 2 -12 3 -20 1 -19 56 -26 67 -8 13 20 79 -18 79 -46 0 -12 6 -61 13 -110
8 -49 11 -103 7 -121 -10 -46 -4 -149 11 -174 12 -18 27 -24 55 -20 6 0 44
-41 45 -50 0 -3 2 -14 4 -23 2 -9 -5 -24 -15 -33 -17 -15 -21 -15 -49 0 -17 8
-31 19 -31 23 0 4 -16 8 -35 9 -25 2 -35 -1 -35 -11 0 -20 -39 -82 -77 -122
-29 -31 -33 -32 -33 -14 0 12 5 18 10 15 6 -3 10 1 10 9 0 9 4 16 9 16 5 0 7
8 4 18 -2 10 3 24 11 31 24 20 21 96 -4 121 -11 11 -20 24 -20 29 0 4 -11 7
-25 6 -16 -2 -25 2 -25 11 0 9 -11 14 -30 14 -30 0 -30 0 -29 53 1 28 5 57 9
62 4 6 0 35 -10 65 l-18 55 -1 -90 c-1 -49 -4 -107 -7 -127 -6 -36 -5 -38 21
-38 15 0 52 -15 82 -32 53 -32 54 -34 49 -69 -7 -42 -57 -158 -86 -199 -28
-39 -25 -43 12 -20 54 32 130 113 150 158 11 23 22 41 26 39 58 -27 90 -44
105 -56 10 -9 21 -11 26 -5 18 19 32 85 26 115 -6 26 -16 35 -64 56 l-56 24 3
137 c2 75 1 166 -3 202 -6 57 -11 68 -43 97 -41 38 -62 41 -87 13 -10 -11 -22
-20 -28 -20 -10 0 -4 102 8 152 6 23 3 29 -26 44 -40 20 -147 29 -171 14z"/>
<path d="M1165 2048 c-2 -7 -11 -51 -20 -98 -9 -46 -19 -88 -22 -93 -3 -5 -24
-6 -47 -3 l-41 7 48 -48 c26 -27 61 -57 78 -67 31 -18 31 -18 20 3 -7 11 -23
28 -37 37 -25 17 -31 61 -7 57 14 -3 21 17 24 67 2 19 7 41 12 47 12 17 16
103 5 103 -5 0 -10 -6 -13 -12z"/>
<path d="M2912 1870 c0 -19 2 -27 5 -17 2 9 2 25 0 35 -3 9 -5 1 -5 -18z"/>
<path d="M1724 1841 c8 -12 159 -71 181 -71 11 0 15 -6 11 -17 -31 -110 -41
-133 -55 -129 -9 3 -45 7 -81 11 -115 11 -194 27 -234 46 -22 11 -42 19 -44
19 -7 0 10 -64 26 -97 18 -38 23 -39 199 -57 65 -7 117 -17 116 -22 -1 -5 -14
-40 -27 -79 -27 -74 -33 -153 -15 -186 32 -61 209 -128 359 -136 114 -7 130 2
110 62 -7 20 -10 58 -8 85 1 28 2 50 2 50 -1 0 -25 -16 -54 -35 -29 -19 -63
-38 -77 -41 -43 -11 -178 39 -199 73 -8 13 -9 36 -4 69 11 69 29 134 38 134
54 -1 263 -35 313 -51 103 -34 117 -17 75 84 l-16 37 -76 0 c-65 0 -263 19
-272 25 -5 4 39 95 49 100 4 3 5 13 2 21 -5 13 -1 15 14 10 34 -11 173 -36
199 -36 35 0 32 46 -7 99 -26 36 -34 42 -52 34 -25 -9 -340 -9 -423 1 -34 4
-53 3 -50 -3z m310 -32 c50 0 111 3 135 6 38 5 46 2 67 -22 35 -40 27 -59 -21
-56 -21 2 -41 6 -44 10 -3 5 -13 9 -22 9 -9 1 -37 4 -62 8 -40 6 -46 5 -52
-14 -3 -11 -11 -20 -16 -20 -5 0 -8 -3 -7 -7 3 -15 -22 -63 -32 -63 -10 0 -4
-49 9 -62 3 -3 33 -9 66 -13 33 -4 74 -9 90 -12 17 -2 59 -3 95 -3 58 1 69 -2
90 -25 13 -14 18 -25 11 -25 -8 0 -9 -5 -1 -19 5 -11 10 -22 10 -24 0 -5 -26
-2 -40 3 -3 1 -9 2 -14 1 -5 -1 -16 5 -25 13 -18 16 -131 34 -241 38 -69 3
-75 1 -86 -20 -8 -17 -13 -20 -17 -10 -3 7 -6 2 -6 -12 1 -14 -3 -50 -7 -82
-8 -67 2 -128 20 -128 8 0 19 -7 26 -15 6 -8 15 -14 18 -13 4 1 14 -2 22 -5
69 -28 113 -37 126 -26 8 6 14 9 14 5 0 -4 20 4 44 18 24 13 47 22 50 19 3 -4
6 -23 6 -43 0 -20 5 -41 11 -47 12 -12 1 -17 -56 -28 -34 -6 -175 14 -175 25
0 4 -13 7 -29 8 -16 0 -40 8 -54 16 -13 9 -27 13 -30 9 -4 -3 -7 0 -7 7 0 7
-3 10 -7 7 -3 -4 -13 2 -20 13 -8 11 -18 18 -23 15 -12 -7 -40 48 -40 78 0 32
35 164 48 180 7 8 7 18 2 27 -5 8 -7 17 -5 20 2 3 -4 7 -13 8 -9 1 -57 6 -107
11 -167 17 -195 26 -195 66 0 19 4 23 18 18 9 -4 19 -10 22 -14 7 -11 100 -20
219 -22 l95 -2 18 50 c29 81 23 116 -21 130 -18 6 -21 9 -10 16 8 5 25 7 38 4
13 -4 65 -6 115 -6z"/>
<path d="M1877 1586 c-4 -10 -7 -25 -6 -34 0 -11 4 -9 10 7 5 13 8 29 6 35 -2
5 -6 2 -10 -8z"/>
<path d="M1903 1574 c-3 -8 -1 -20 4 -25 7 -7 11 -2 11 15 0 29 -6 33 -15 10z"/>
<path d="M757 1771 c-9 -16 -16 -47 -16 -72 1 -24 1 -73 0 -109 -1 -97 9 -140
35 -140 8 0 14 -4 14 -10 0 -17 39 -11 60 10 17 17 19 33 19 137 -1 65 -5 139
-11 166 -10 46 -11 47 -47 47 -30 0 -40 -5 -54 -29z m78 -10 c7 -24 12 -298 4
-305 -3 -3 -18 -2 -34 2 -39 11 -48 55 -41 192 4 84 9 107 22 117 25 18 42 16
49 -6z"/>
<path d="M872 1766 c6 -20 18 -36 25 -36 11 0 11 5 3 20 -6 11 -8 26 -4 33 4
6 4 9 -1 5 -4 -4 -14 -3 -21 3 -10 8 -10 3 -2 -25z"/>
<path d="M1158 1723 c-1 -5 -43 -26 -92 -48 -49 -22 -91 -45 -93 -52 -3 -7 11
-28 29 -49 39 -42 38 -42 140 34 31 23 59 42 61 42 3 0 12 -18 21 -40 19 -48
31 -164 22 -213 -6 -33 -11 -38 -62 -54 l-56 -17 29 -21 c15 -11 45 -35 65
-54 l38 -33 31 18 c18 11 45 36 62 56 26 32 31 48 35 113 3 45 0 94 -8 122
-25 91 -51 153 -66 153 -18 0 -18 -14 1 -30 9 -7 14 -18 12 -24 -2 -6 5 -33
15 -61 11 -27 17 -60 15 -72 -2 -13 0 -26 4 -29 5 -3 9 -28 9 -55 0 -31 -4
-48 -10 -44 -5 3 -7 0 -4 -9 8 -20 -25 -73 -48 -79 -15 -4 -18 -1 -13 16 4 15
0 13 -12 -8 -17 -30 -18 -30 -21 -6 -2 13 2 28 10 32 11 7 11 9 0 9 -8 0 -16
-9 -19 -20 -6 -24 -17 -25 -42 -3 -23 19 -19 33 8 33 12 0 25 14 36 36 14 29
15 52 10 137 -4 59 -12 105 -19 109 -6 4 -7 8 -2 8 5 0 1 9 -9 20 -24 27 -57
25 -85 -5 -12 -13 -26 -22 -31 -20 -4 3 -20 -6 -35 -20 -33 -30 -45 -31 -69
-5 -18 20 -18 21 1 35 10 8 28 17 39 20 62 19 135 68 117 79 -6 3 -12 3 -14
-1z"/>
<path d="M1745 1450 c-3 -5 -1 -10 4 -10 6 0 11 5 11 10 0 6 -2 10 -4 10 -3 0
-8 -4 -11 -10z"/>
<path d="M1118 893 c7 -3 16 -2 19 1 4 3 -2 6 -13 5 -11 0 -14 -3 -6 -6z"/>
<path d="M1040 735 c-10 -12 -10 -15 0 -15 8 0 11 -24 10 -82 -3 -108 -3 -108
15 -108 9 0 16 10 17 28 0 15 2 32 2 39 2 14 36 53 48 53 4 0 8 -25 8 -55 0
-58 18 -82 43 -55 9 10 9 14 0 17 -9 3 -11 20 -7 57 8 65 -9 86 -53 64 -15 -8
-27 -20 -25 -28 3 -11 0 -11 -13 0 -9 7 -12 16 -6 19 8 6 15 40 12 69 -1 17
-36 15 -51 -3z"/>
<path d="M1229 661 c-64 -64 -12 -166 63 -123 43 25 48 91 10 135 -21 24 -39
21 -73 -12z m56 -25 c17 -12 18 -18 7 -40 -7 -16 -20 -26 -32 -26 -16 0 -20 7
-20 33 0 49 12 57 45 33z"/>
<path d="M1376 665 c-21 -19 -26 -33 -26 -69 0 -49 16 -66 64 -66 55 0 76 91
31 135 -30 31 -36 31 -69 0z m55 -25 c15 0 10 -46 -6 -60 -20 -16 -45 -6 -45
19 0 32 12 52 27 47 8 -3 19 -6 24 -6z"/>
<path d="M1527 683 c-32 -4 -36 -7 -26 -19 6 -8 22 -14 35 -14 31 0 30 -3 -6
-57 -17 -24 -28 -49 -25 -54 8 -12 82 -12 106 1 33 18 23 36 -17 32 l-37 -5
27 35 c29 39 34 73 10 82 -9 3 -19 5 -22 4 -4 -1 -24 -3 -45 -5z m50 -45 c-3
-8 -6 -5 -6 6 -1 11 2 17 5 13 3 -3 4 -12 1 -19z"/>
<path d="M1682 683 c-51 -7 -33 -28 22 -26 25 1 46 -3 46 -8 0 -5 -9 -9 -20
-9 -11 0 -20 -4 -20 -9 0 -5 -12 -23 -26 -40 -32 -39 -26 -61 18 -61 47 0 76
10 83 27 7 21 6 21 -32 16 -18 -3 -30 -9 -27 -14 3 -5 1 -9 -5 -9 -5 0 -13 5
-16 10 -3 6 -2 10 3 10 5 0 21 18 36 40 21 32 24 44 16 60 -6 11 -18 19 -28
18 -9 0 -32 -3 -50 -5z"/>
<path d="M1838 683 c-40 -4 -49 -16 -22 -27 26 -10 59 -7 73 7 10 10 11 9 6
-5 -4 -10 -10 -18 -14 -18 -4 0 -22 -21 -40 -46 -38 -55 -31 -66 38 -62 28 2
48 9 55 20 15 24 6 28 -37 18 -21 -4 -39 -4 -43 1 -3 5 2 9 10 9 19 0 56 52
56 78 0 18 -21 35 -38 30 -4 -1 -24 -3 -44 -5z"/>
</g>
</svg>
