<svg version="1.1" id="Layer_1" xmlns="http://www.w3.org/2000/svg" xmlns:xlink="http://www.w3.org/1999/xlink" x="0px" y="0px"
	 width="100%" viewBox="0 0 500 500" enable-background="new 0 0 500 500" xml:space="preserve">
<path fill="#F1E8E8" opacity="1.000000" stroke="none" 
	d="
M279.000000,501.000000 
	C186.000015,501.000000 93.500046,501.000000 1.000050,501.000000 
	C1.000033,334.333405 1.000033,167.666794 1.000017,1.000139 
	C167.666565,1.000093 334.333130,1.000093 500.999756,1.000046 
	C500.999847,167.666519 500.999847,334.333038 500.999939,500.999786 
	C427.166656,501.000000 353.333344,501.000000 279.000000,501.000000 
M187.187134,414.257111 
	C182.761017,413.310699 185.008072,409.912720 185.248322,407.842041 
	C186.867706,393.884430 184.495605,391.675964 171.248032,395.570374 
	C171.248032,393.726929 171.583603,391.843658 171.168655,390.143585 
	C170.560364,387.651337 169.937683,383.809174 168.363998,383.253662 
	C166.460281,382.581635 163.557922,384.738617 160.332809,385.956360 
	C166.045334,390.533539 163.740234,395.257843 163.742386,399.470154 
	C163.745193,404.941498 163.025711,410.415649 163.092148,415.882812 
	C163.108337,417.215637 164.977478,418.525970 165.994659,419.846649 
	C167.155273,418.667450 168.937866,417.665863 169.336746,416.269073 
	C170.004578,413.930634 169.807266,411.340973 169.942413,408.855347 
	C170.197052,404.172516 172.654419,401.781006 178.055756,401.315735 
	C178.055756,404.938751 178.119614,408.535583 178.036453,412.129028 
	C177.964249,415.248535 177.971527,418.432190 181.670319,419.416870 
	C185.619476,420.468262 186.743225,417.311157 188.667801,414.711975 
	C195.793243,422.590851 203.623718,422.681946 208.204712,414.436798 
	C209.763000,411.632111 210.023193,407.756042 209.856750,404.420410 
	C209.562195,398.518005 205.489624,393.717957 200.765381,393.480103 
	C195.448853,393.212402 192.197372,396.846924 190.176102,401.132904 
	C188.885315,403.869934 188.750168,407.171936 188.228897,410.243042 
	C187.985916,411.674591 188.056244,413.159363 187.187134,414.257111 
M28.976713,246.468292 
	C35.479065,254.640228 42.069660,262.743896 48.459286,271.003021 
	C55.033459,279.500732 62.410526,287.585419 67.652138,296.859253 
	C76.532494,312.570953 87.866692,325.961792 102.793076,335.626678 
	C122.688187,348.508820 144.543243,355.131409 168.823975,353.174591 
	C189.770889,351.486450 208.572708,345.024597 225.631821,332.816071 
	C228.639771,330.663361 232.829163,329.380768 236.556595,329.169006 
	C245.644196,328.652832 254.800247,328.655609 263.888458,329.166321 
	C267.647186,329.377563 271.914429,330.583893 274.909149,332.766418 
	C300.035461,351.078064 327.908478,357.545380 358.274506,351.822510 
	C385.072083,346.772125 407.360657,333.692871 423.395020,311.181152 
	C428.281677,304.320404 431.821747,296.475647 436.905853,289.786346 
	C444.723938,279.499878 453.083466,269.591095 461.679443,259.937164 
	C477.049316,242.675629 484.371735,222.131744 485.840546,199.597656 
	C487.532806,173.636261 480.077850,149.914856 464.312622,129.232758 
	C459.156647,122.468704 453.223297,114.944611 445.890808,111.455925 
	C426.901428,102.421028 407.173431,94.758781 387.301361,87.802460 
	C360.013855,78.250328 331.829498,72.204193 303.044189,68.853127 
	C283.439423,66.570816 263.825134,65.075432 244.126389,66.081024 
	C225.767761,67.018211 207.295746,67.634300 189.146866,70.271774 
	C169.038544,73.194000 149.044479,77.496208 129.368393,82.611801 
	C113.510742,86.734634 97.884483,92.198486 82.733597,98.464935 
	C66.825516,105.044556 50.147560,110.124725 38.750465,125.294785 
	C25.888227,142.415024 17.323910,160.916519 15.178452,181.971649 
	C12.884234,204.486649 17.359718,225.986099 28.976713,246.468292 
M220.519379,394.884674 
	C214.505112,398.701294 212.490631,404.398773 213.107651,411.173828 
	C213.812500,418.913391 222.064438,422.914062 228.610321,418.800751 
	C236.140396,414.069031 237.323380,401.759277 230.643402,395.871735 
	C227.928467,393.478943 224.702789,392.088318 220.519379,394.884674 
M255.997177,396.516785 
	C250.597137,392.135071 248.000488,392.218475 243.007370,396.629913 
	C238.423203,400.680084 237.467651,405.875458 238.004913,411.569733 
	C238.662689,418.541473 246.198380,422.591248 252.435272,419.381500 
	C260.438080,415.262939 262.063385,406.323639 255.997177,396.516785 
M316.852753,417.788635 
	C323.088593,420.895325 329.403015,420.283752 335.458862,417.569366 
	C336.755219,416.988373 337.131561,414.354645 338.134644,412.238525 
	C333.913757,412.238525 330.994781,412.238525 327.518829,412.238525 
	C329.915009,408.213318 332.047760,405.047760 333.740387,401.662170 
	C335.235870,398.670868 334.989532,394.729248 331.574066,394.213043 
	C326.142456,393.392090 320.462341,394.215424 314.155640,394.360107 
	C316.857117,400.744537 321.685150,399.365326 326.138458,400.623962 
	C323.411011,404.795593 320.838196,408.580902 318.441559,412.474701 
	C317.560822,413.905670 317.096771,415.593048 316.852753,417.788635 
M284.782593,415.894073 
	C284.782593,414.668365 284.782593,413.442688 284.782593,412.302124 
	C281.546417,412.488922 278.739502,412.650940 274.985352,412.867615 
	C277.548706,408.493683 279.657867,405.344543 281.296417,401.967041 
	C282.806122,398.855164 282.818512,394.691681 279.107513,394.108521 
	C273.681580,393.255829 267.972626,394.204346 262.384277,394.385162 
	C262.245544,395.274567 262.106781,396.163971 261.968048,397.053406 
	C265.556091,398.388367 269.144135,399.723328 273.503082,401.345123 
	C270.921997,405.184998 268.419159,409.194824 265.612885,412.979736 
	C263.826782,415.388702 262.854889,417.974121 266.381073,418.742645 
	C272.471497,420.070068 278.844818,421.089813 284.782593,415.894073 
M294.559570,393.985870 
	C292.504852,394.274841 290.450165,394.563812 288.085266,394.896393 
	C290.123505,400.733826 295.361450,399.214203 299.836060,400.928894 
	C296.851746,405.317017 294.289459,409.306915 291.494049,413.126160 
	C289.163086,416.310883 289.617340,418.663971 293.507355,419.041168 
	C298.057617,419.482452 302.768280,419.290649 307.294281,418.609161 
	C310.417664,418.138855 311.750519,415.597198 310.720734,412.286652 
	C307.634308,412.481720 304.819305,412.659637 300.985687,412.901917 
	C303.511536,408.587616 305.656525,405.476959 307.234344,402.101166 
	C309.690582,396.846069 307.111328,393.209747 301.368622,393.464966 
	C299.383026,393.553162 297.404083,393.790771 294.559570,393.985870 
z"/>
<path fill="#FFF4EC" opacity="1.000000" stroke="none" 
	d="
M28.754959,246.177628 
	C17.359718,225.986099 12.884234,204.486649 15.178452,181.971649 
	C17.323910,160.916519 25.888227,142.415024 38.750465,125.294785 
	C50.147560,110.124725 66.825516,105.044556 82.733597,98.464935 
	C97.884483,92.198486 113.510742,86.734634 129.368393,82.611801 
	C149.044479,77.496208 169.038544,73.194000 189.146866,70.271774 
	C207.295746,67.634300 225.767761,67.018211 244.126389,66.081024 
	C263.825134,65.075432 283.439423,66.570816 303.044189,68.853127 
	C331.829498,72.204193 360.013855,78.250328 387.301361,87.802460 
	C407.173431,94.758781 426.901428,102.421028 445.890808,111.455925 
	C453.223297,114.944611 459.156647,122.468704 464.312622,129.232758 
	C480.077850,149.914856 487.532806,173.636261 485.840546,199.597656 
	C484.371735,222.131744 477.049316,242.675629 461.679443,259.937164 
	C453.083466,269.591095 444.723938,279.499878 436.905853,289.786346 
	C431.821747,296.475647 428.281677,304.320404 423.395020,311.181152 
	C407.360657,333.692871 385.072083,346.772125 358.274506,351.822510 
	C327.908478,357.545380 300.035461,351.078064 274.909149,332.766418 
	C271.914429,330.583893 267.647186,329.377563 263.888458,329.166321 
	C254.800247,328.655609 245.644196,328.652832 236.556595,329.169006 
	C232.829163,329.380768 228.639771,330.663361 225.631821,332.816071 
	C208.572708,345.024597 189.770889,351.486450 168.823975,353.174591 
	C144.543243,355.131409 122.688187,348.508820 102.793076,335.626678 
	C87.866692,325.961792 76.532494,312.570953 67.652138,296.859253 
	C62.410526,287.585419 55.033459,279.500732 48.459286,271.003021 
	C42.069660,262.743896 35.479065,254.640228 28.754959,246.177628 
M161.989029,231.892914 
	C168.877945,245.132996 173.437485,246.226852 185.158676,237.453491 
	C185.692184,237.054153 186.229019,236.658493 186.776749,236.279053 
	C191.515869,232.996033 196.257828,229.717117 201.116806,226.355438 
	C202.054581,227.685928 202.654556,228.297592 202.977722,229.031204 
	C208.884674,242.440475 209.304886,256.466064 207.221024,270.656738 
	C206.984589,272.266815 204.867554,274.130035 203.178482,274.893707 
	C198.889420,276.832886 194.348206,278.214447 189.182587,280.081390 
	C194.695847,284.564514 199.454514,288.446808 204.227188,292.311829 
	C211.138779,297.909027 212.219757,297.996674 219.627853,292.741913 
	C221.638336,291.315796 223.529160,289.582794 225.080078,287.670441 
	C232.515518,278.502014 234.083160,267.745880 232.442993,256.521179 
	C230.546509,243.542282 226.786072,231.045090 220.564011,219.021973 
	C229.441574,217.245758 238.113327,215.686752 246.694244,213.729477 
	C252.054764,212.506775 253.779449,208.578934 250.645447,204.065765 
	C248.330200,200.731659 244.945786,198.103348 241.875198,195.341263 
	C239.085510,192.831894 236.193222,192.758652 232.824982,194.844452 
	C227.881226,197.905914 222.693344,200.608139 217.442291,203.112915 
	C216.180725,203.714676 213.373703,203.546158 212.789368,202.694504 
	C209.176147,197.428284 204.157578,195.089600 197.044174,194.736771 
	C198.258224,192.135635 198.855759,189.861603 200.187241,188.162796 
	C209.295609,176.541611 214.133255,162.846802 219.118973,149.264694 
	C222.284760,140.640427 220.650299,137.652069 212.201965,134.347000 
	C210.962860,133.862228 209.694458,133.449585 208.429779,133.033463 
	C201.899399,130.884781 198.945480,131.954514 194.664551,137.480331 
	C193.199356,139.371613 191.402847,141.279083 189.333420,142.385788 
	C174.089264,150.538086 158.335754,157.507309 140.084381,162.093521 
	C143.333252,165.241013 145.498611,168.338760 148.464615,170.043350 
	C163.211243,178.518326 162.457916,178.994354 174.400803,167.750977 
	C179.807327,162.661102 186.364197,159.844269 195.201355,157.735611 
	C192.545731,169.459610 190.288284,179.966949 187.626297,190.370789 
	C187.349136,191.453979 184.681870,192.523956 183.108673,192.546158 
	C180.285400,192.586029 177.450806,191.825150 174.620941,191.398880 
	C179.991745,197.864212 185.666519,203.191940 191.281021,208.582443 
	C195.633270,212.761017 195.533707,213.629089 190.077866,216.212280 
	C180.755264,220.626328 171.365097,224.897690 161.313324,228.684082 
	C160.846725,222.216782 160.390091,215.748749 159.911087,209.282364 
	C159.267151,200.589539 158.624344,192.300705 149.818527,186.772186 
	C145.730087,184.205322 142.998566,184.369934 139.512878,186.414398 
	C137.497849,187.596283 135.581406,188.946243 133.044861,190.594727 
	C132.775589,181.455093 131.826477,173.493225 135.383286,165.823471 
	C135.972610,164.552673 135.093399,161.831879 133.972351,160.667130 
	C128.489655,154.970673 109.719566,152.276520 102.619926,155.803909 
	C99.386559,157.410385 99.144669,159.285110 101.402084,162.078445 
	C103.029716,164.092499 104.652168,166.376205 105.372971,168.807632 
	C107.497147,175.972931 109.587341,183.195374 110.931976,190.534500 
	C113.432823,204.184387 112.557930,205.332230 99.194458,209.035828 
	C92.838745,210.797287 86.406708,212.283401 78.789642,214.201340 
	C81.274086,218.669296 83.050789,222.734177 85.595764,226.241592 
	C89.616982,231.783493 92.799080,232.349823 98.970917,229.450699 
	C102.833481,227.636322 106.643448,225.709946 110.918709,223.617676 
	C113.536552,237.378799 112.803406,250.489426 109.832878,264.072968 
	C120.296150,263.145782 126.799713,269.370850 134.198044,273.736084 
	C136.962784,275.367340 137.583878,277.247986 136.850906,279.833893 
	C135.446686,284.788025 134.227737,289.862366 132.159363,294.545593 
	C128.556122,302.704041 124.367210,310.603821 120.184151,319.098724 
	C121.696526,318.534912 123.119385,318.232086 124.303474,317.527802 
	C135.733337,310.729309 145.043900,301.779968 150.536041,289.551147 
	C152.380661,285.443939 154.464920,285.121429 157.755844,286.869019 
	C162.157150,289.206268 166.666122,291.430420 170.739349,294.263184 
	C173.313675,296.053589 174.962357,295.946808 176.468445,293.503479 
	C180.050400,287.692535 180.685837,281.351349 179.541046,274.733734 
	C178.543304,268.966064 173.577057,268.138367 169.298050,266.476685 
	C159.555023,262.693146 159.465073,262.701172 160.128174,252.347565 
	C160.579971,245.293030 161.309830,238.256287 161.989029,231.892914 
M355.807373,230.354401 
	C341.297028,227.622421 326.786713,224.890442 311.083893,221.933945 
	C322.071899,218.864151 332.852722,219.484940 342.342773,213.681320 
	C339.826965,210.703506 337.866791,208.383377 335.227356,205.259247 
	C353.554047,205.327103 367.246460,216.510880 384.453064,220.610382 
	C384.453064,215.056595 384.453064,210.521790 384.482422,206.035095 
	C384.482422,206.035095 384.517303,206.079346 385.367432,206.035599 
	C395.662598,202.760010 405.994812,199.594910 416.237549,196.162811 
	C421.463715,194.411636 422.503510,192.095795 419.653625,187.259644 
	C417.056763,182.852921 413.363800,179.107620 410.423279,174.883347 
	C407.794189,171.106461 404.979004,171.746643 401.344208,173.289673 
	C398.634521,174.439941 395.232635,175.385696 392.490723,174.793671 
	C378.678101,171.811142 364.977753,168.306900 351.250977,164.932907 
	C350.420593,164.728821 349.702423,164.068283 348.582184,163.416626 
	C351.112061,161.051910 353.372437,159.122940 355.418671,156.988693 
	C359.864868,152.351303 359.939423,150.056503 355.226868,145.761337 
	C349.332520,140.389099 341.929993,138.099899 334.571289,135.852341 
	C334.025757,136.192856 333.480225,136.533386 332.934692,136.873901 
	C335.625488,145.079956 338.316284,153.286026 341.116241,161.824936 
	C339.273132,161.824936 337.747223,162.078918 336.335205,161.785187 
	C323.800171,159.177689 311.220612,156.734299 298.799652,153.655609 
	C294.456268,152.579041 290.879578,149.729645 289.909576,144.512863 
	C289.476349,142.182724 287.722717,140.098099 286.807159,138.356354 
	C277.597137,147.460876 268.952026,155.945038 260.421997,164.543365 
	C259.643433,165.328186 258.978607,167.081039 259.320404,167.982834 
	C261.479889,173.680603 263.287689,179.671631 266.476654,184.775391 
	C269.832306,190.145920 272.016266,189.940613 276.993103,186.174606 
	C278.122620,185.319901 279.305511,184.535675 281.033844,183.317108 
	C281.033844,185.526642 281.024689,186.996979 281.035339,188.467163 
	C281.094330,196.619431 281.232880,196.756119 289.289703,196.897537 
	C290.788727,196.923828 292.309174,196.836029 293.782104,197.054520 
	C301.018677,198.128082 308.242554,199.287201 315.470917,200.416107 
	C315.539032,201.188705 315.607147,201.961304 315.675293,202.733887 
	C309.742004,205.122162 303.965485,208.093277 297.833405,209.742386 
	C291.074402,211.560135 284.278107,214.677307 276.870605,212.183578 
	C276.283875,211.986038 274.106018,213.946793 274.235046,214.590164 
	C275.458984,220.692627 276.912048,226.758316 278.610504,232.746262 
	C278.857635,233.617538 280.712860,234.490799 281.878540,234.571075 
	C291.307251,235.220367 300.748474,236.020004 310.187012,236.034119 
	C314.072968,236.039902 315.436829,237.003708 315.008972,240.653244 
	C314.816010,242.298859 314.380432,243.919617 314.242676,245.567337 
	C313.970062,248.829315 312.315491,249.207993 309.459778,248.445709 
	C302.874298,246.687851 296.195648,245.281448 289.596405,243.571960 
	C280.531708,241.223831 271.505463,238.727325 262.462738,236.294388 
	C261.946899,236.688019 261.431091,237.081650 260.915253,237.475281 
	C263.327850,243.163376 264.862457,249.530487 268.518097,254.257202 
	C270.386414,256.672913 276.021942,256.512238 280.013519,256.881378 
	C289.552734,257.763580 299.126770,258.269440 308.924408,258.943573 
	C307.717102,264.818207 306.656036,269.981201 305.557953,275.324310 
	C282.447876,272.957428 260.234100,269.114716 239.087585,257.545929 
	C240.190765,266.788757 242.470886,274.160706 247.269852,280.184265 
	C249.400085,282.858093 253.475845,284.986816 256.915405,285.424988 
	C267.412170,286.762299 278.193542,286.237579 288.567841,288.093689 
	C318.747803,293.493256 348.595490,300.292633 375.780975,315.408600 
	C376.793945,315.971832 377.902466,316.703339 378.983795,316.733429 
	C381.323059,316.798462 384.276001,317.240082 385.831573,316.040741 
	C387.108643,315.056152 387.250061,311.852020 386.959991,309.761414 
	C386.554718,306.840637 385.259644,304.046661 384.380463,301.187622 
	C381.513336,291.863892 381.132324,290.243744 368.689575,289.933838 
	C365.055267,289.843353 361.289459,289.676300 357.836090,288.674835 
	C347.221008,285.596405 336.728119,282.096832 325.637054,278.586700 
	C327.070435,274.214386 328.598236,269.553955 330.159149,264.792480 
	C331.715363,265.190918 332.671326,265.428009 333.623230,265.680481 
	C347.609406,269.390411 361.596558,273.096649 375.579407,276.819000 
	C378.147095,277.502533 380.159698,277.399811 380.781006,274.144196 
	C381.908447,268.236206 377.936218,261.339264 372.068878,259.805084 
	C367.574097,258.629761 362.977783,257.805756 358.393555,257.017639 
	C350.590820,255.676163 342.762115,254.485718 333.753418,253.040817 
	C336.001038,249.502411 337.693176,246.955475 339.265686,244.336700 
	C341.921570,239.913818 335.541046,240.258820 335.203247,236.767288 
	C338.268433,236.963120 341.047913,237.111359 343.822235,237.326157 
	C346.640900,237.544388 349.449677,237.926239 352.271179,238.065338 
	C361.266937,238.508896 361.442291,238.616791 363.930054,247.478302 
	C364.109741,248.118408 364.224152,248.777420 364.415802,249.413498 
	C365.800232,254.008545 367.907867,255.078568 372.043457,252.351746 
	C375.735565,249.917282 378.881012,246.653687 382.361969,243.675278 
	C375.612366,230.217484 365.071411,221.227890 353.843597,212.895782 
	C353.330444,213.173157 352.817261,213.450546 352.304077,213.727921 
	C353.969849,219.054031 355.635590,224.380157 356.946564,230.060898 
	C356.830719,230.181473 356.714874,230.302048 355.807373,230.354401 
z"/>
<path fill="#FE9554" opacity="1.000000" stroke="none" 
	d="
M187.942749,414.521820 
	C186.743225,417.311157 185.619476,420.468262 181.670319,419.416870 
	C177.971527,418.432190 177.964249,415.248535 178.036453,412.129028 
	C178.119614,408.535583 178.055756,404.938751 178.055756,401.315735 
	C172.654419,401.781006 170.197052,404.172516 169.942413,408.855347 
	C169.807266,411.340973 170.004578,413.930634 169.336746,416.269073 
	C168.937866,417.665863 167.155273,418.667450 165.994659,419.846649 
	C164.977478,418.525970 163.108337,417.215637 163.092148,415.882812 
	C163.025711,410.415649 163.745193,404.941498 163.742386,399.470154 
	C163.740234,395.257843 166.045334,390.533539 160.332809,385.956360 
	C163.557922,384.738617 166.460281,382.581635 168.363998,383.253662 
	C169.937683,383.809174 170.560364,387.651337 171.168655,390.143585 
	C171.583603,391.843658 171.248032,393.726929 171.248032,395.570374 
	C184.495605,391.675964 186.867706,393.884430 185.248322,407.842041 
	C185.008072,409.912720 182.761017,413.310699 187.580276,414.411957 
	C187.973419,414.566803 187.942749,414.521820 187.942749,414.521820 
z"/>
<path fill="#FE9554" opacity="1.000000" stroke="none" 
	d="
M220.809387,394.658203 
	C224.702789,392.088318 227.928467,393.478943 230.643402,395.871735 
	C237.323380,401.759277 236.140396,414.069031 228.610321,418.800751 
	C222.064438,422.914062 213.812500,418.913391 213.107651,411.173828 
	C212.490631,404.398773 214.505112,398.701294 220.809387,394.658203 
M220.127396,409.994873 
	C221.643265,413.081177 224.493591,413.029572 226.229340,411.200287 
	C227.947403,409.389679 229.202621,406.346497 229.074936,403.927673 
	C229.015137,402.794891 225.193848,401.068451 223.134903,401.145691 
	C221.992706,401.188538 220.826538,404.327637 219.958710,406.204132 
	C219.585129,407.011932 219.940689,408.156952 220.127396,409.994873 
z"/>
<path fill="#FE9554" opacity="1.000000" stroke="none" 
	d="
M256.243652,396.798157 
	C262.063385,406.323639 260.438080,415.262939 252.435272,419.381500 
	C246.198380,422.591248 238.662689,418.541473 238.004913,411.569733 
	C237.467651,405.875458 238.423203,400.680084 243.007370,396.629913 
	C248.000488,392.218475 250.597137,392.135071 256.243652,396.798157 
M245.522781,411.165558 
	C246.753220,411.488525 248.087463,412.288208 249.195068,412.047028 
	C252.839127,411.253571 254.665497,408.357300 253.881760,405.067780 
	C253.478012,403.373260 250.797653,401.542328 248.824371,401.042328 
	C244.749405,400.009705 245.064835,403.786530 244.591721,406.157593 
	C244.320984,407.514374 244.897247,409.040161 245.522781,411.165558 
z"/>
<path fill="#FF9453" opacity="1.000000" stroke="none" 
	d="
M188.305267,414.616882 
	C187.942749,414.521820 187.973419,414.566803 187.978973,414.593384 
	C188.056244,413.159363 187.985916,411.674591 188.228897,410.243042 
	C188.750168,407.171936 188.885315,403.869934 190.176102,401.132904 
	C192.197372,396.846924 195.448853,393.212402 200.765381,393.480103 
	C205.489624,393.717957 209.562195,398.518005 209.856750,404.420410 
	C210.023193,407.756042 209.763000,411.632111 208.204712,414.436798 
	C203.623718,422.681946 195.793243,422.590851 188.305267,414.616882 
M204.755356,403.883026 
	C202.168747,402.961212 199.582153,402.039429 196.995560,401.117615 
	C196.382523,403.907349 195.455093,406.684875 195.345978,409.494171 
	C195.312744,410.349274 197.482162,411.971558 198.734009,412.068878 
	C202.708832,412.377899 203.868088,409.237823 204.809433,406.142242 
	C204.948624,405.684509 204.862793,405.158386 204.755356,403.883026 
z"/>
<path fill="#FF9351" opacity="1.000000" stroke="none" 
	d="
M316.647705,417.476074 
	C317.096771,415.593048 317.560822,413.905670 318.441559,412.474701 
	C320.838196,408.580902 323.411011,404.795593 326.138458,400.623962 
	C321.685150,399.365326 316.857117,400.744537 314.155640,394.360107 
	C320.462341,394.215424 326.142456,393.392090 331.574066,394.213043 
	C334.989532,394.729248 335.235870,398.670868 333.740387,401.662170 
	C332.047760,405.047760 329.915009,408.213318 327.518829,412.238525 
	C330.994781,412.238525 333.913757,412.238525 338.134644,412.238525 
	C337.131561,414.354645 336.755219,416.988373 335.458862,417.569366 
	C329.403015,420.283752 323.088593,420.895325 316.647705,417.476074 
z"/>
<path fill="#FF9452" opacity="1.000000" stroke="none" 
	d="
M284.581116,416.243835 
	C278.844818,421.089813 272.471497,420.070068 266.381073,418.742645 
	C262.854889,417.974121 263.826782,415.388702 265.612885,412.979736 
	C268.419159,409.194824 270.921997,405.184998 273.503082,401.345123 
	C269.144135,399.723328 265.556091,398.388367 261.968048,397.053406 
	C262.106781,396.163971 262.245544,395.274567 262.384277,394.385162 
	C267.972626,394.204346 273.681580,393.255829 279.107513,394.108521 
	C282.818512,394.691681 282.806122,398.855164 281.296417,401.967041 
	C279.657867,405.344543 277.548706,408.493683 274.985352,412.867615 
	C278.739502,412.650940 281.546417,412.488922 284.782593,412.302124 
	C284.782593,413.442688 284.782593,414.668365 284.581116,416.243835 
z"/>
<path fill="#FF9452" opacity="1.000000" stroke="none" 
	d="
M294.990845,393.973022 
	C297.404083,393.790771 299.383026,393.553162 301.368622,393.464966 
	C307.111328,393.209747 309.690582,396.846069 307.234344,402.101166 
	C305.656525,405.476959 303.511536,408.587616 300.985687,412.901917 
	C304.819305,412.659637 307.634308,412.481720 310.720734,412.286652 
	C311.750519,415.597198 310.417664,418.138855 307.294281,418.609161 
	C302.768280,419.290649 298.057617,419.482452 293.507355,419.041168 
	C289.617340,418.663971 289.163086,416.310883 291.494049,413.126160 
	C294.289459,409.306915 296.851746,405.317017 299.836060,400.928894 
	C295.361450,399.214203 290.123505,400.733826 288.085266,394.896393 
	C290.450165,394.563812 292.504852,394.274841 294.990845,393.973022 
z"/>
<path fill="#FF9350" opacity="1.000000" stroke="none" 
	d="
M384.453064,205.987000 
	C384.453064,210.521790 384.453064,215.056595 384.453064,220.610382 
	C367.246460,216.510880 353.554047,205.327103 335.227356,205.259247 
	C337.866791,208.383377 339.826965,210.703506 342.342773,213.681320 
	C332.852722,219.484940 322.071899,218.864151 311.083893,221.933945 
	C326.786713,224.890442 341.297028,227.622421 356.391235,230.539062 
	C357.083832,230.384567 357.192566,230.045425 357.301331,229.706268 
	C355.635590,224.380157 353.969849,219.054031 352.304077,213.727921 
	C352.817261,213.450546 353.330444,213.173157 353.843597,212.895782 
	C365.071411,221.227890 375.612366,230.217484 382.361969,243.675278 
	C378.881012,246.653687 375.735565,249.917282 372.043457,252.351746 
	C367.907867,255.078568 365.800232,254.008545 364.415802,249.413498 
	C364.224152,248.777420 364.109741,248.118408 363.930054,247.478302 
	C361.442291,238.616791 361.266937,238.508896 352.271179,238.065338 
	C349.449677,237.926239 346.640900,237.544388 343.822235,237.326157 
	C341.047913,237.111359 338.268433,236.963120 335.203247,236.767288 
	C335.541046,240.258820 341.921570,239.913818 339.265686,244.336700 
	C337.693176,246.955475 336.001038,249.502411 333.753418,253.040817 
	C342.762115,254.485718 350.590820,255.676163 358.393555,257.017639 
	C362.977783,257.805756 367.574097,258.629761 372.068878,259.805084 
	C377.936218,261.339264 381.908447,268.236206 380.781006,274.144196 
	C380.159698,277.399811 378.147095,277.502533 375.579407,276.819000 
	C361.596558,273.096649 347.609406,269.390411 333.623230,265.680481 
	C332.671326,265.428009 331.715363,265.190918 330.159149,264.792480 
	C328.598236,269.553955 327.070435,274.214386 325.637054,278.586700 
	C336.728119,282.096832 347.221008,285.596405 357.836090,288.674835 
	C361.289459,289.676300 365.055267,289.843353 368.689575,289.933838 
	C381.132324,290.243744 381.513336,291.863892 384.380463,301.187622 
	C385.259644,304.046661 386.554718,306.840637 386.959991,309.761414 
	C387.250061,311.852020 387.108643,315.056152 385.831573,316.040741 
	C384.276001,317.240082 381.323059,316.798462 378.983795,316.733429 
	C377.902466,316.703339 376.793945,315.971832 375.780975,315.408600 
	C348.595490,300.292633 318.747803,293.493256 288.567841,288.093689 
	C278.193542,286.237579 267.412170,286.762299 256.915405,285.424988 
	C253.475845,284.986816 249.400085,282.858093 247.269852,280.184265 
	C242.470886,274.160706 240.190765,266.788757 239.087585,257.545929 
	C260.234100,269.114716 282.447876,272.957428 305.557953,275.324310 
	C306.656036,269.981201 307.717102,264.818207 308.924408,258.943573 
	C299.126770,258.269440 289.552734,257.763580 280.013519,256.881378 
	C276.021942,256.512238 270.386414,256.672913 268.518097,254.257202 
	C264.862457,249.530487 263.327850,243.163376 260.915253,237.475281 
	C261.431091,237.081650 261.946899,236.688019 262.462738,236.294388 
	C271.505463,238.727325 280.531708,241.223831 289.596405,243.571960 
	C296.195648,245.281448 302.874298,246.687851 309.459778,248.445709 
	C312.315491,249.207993 313.970062,248.829315 314.242676,245.567337 
	C314.380432,243.919617 314.816010,242.298859 315.008972,240.653244 
	C315.436829,237.003708 314.072968,236.039902 310.187012,236.034119 
	C300.748474,236.020004 291.307251,235.220367 281.878540,234.571075 
	C280.712860,234.490799 278.857635,233.617538 278.610504,232.746262 
	C276.912048,226.758316 275.458984,220.692627 274.235046,214.590164 
	C274.106018,213.946793 276.283875,211.986038 276.870605,212.183578 
	C284.278107,214.677307 291.074402,211.560135 297.833405,209.742386 
	C303.965485,208.093277 309.742004,205.122162 315.675293,202.733887 
	C315.607147,201.961304 315.539032,201.188705 315.470917,200.416107 
	C308.242554,199.287201 301.018677,198.128082 293.782104,197.054520 
	C292.309174,196.836029 290.788727,196.923828 289.289703,196.897537 
	C281.232880,196.756119 281.094330,196.619431 281.035339,188.467163 
	C281.024689,186.996979 281.033844,185.526642 281.033844,183.317108 
	C279.305511,184.535675 278.122620,185.319901 276.993103,186.174606 
	C272.016266,189.940613 269.832306,190.145920 266.476654,184.775391 
	C263.287689,179.671631 261.479889,173.680603 259.320404,167.982834 
	C258.978607,167.081039 259.643433,165.328186 260.421997,164.543365 
	C268.952026,155.945038 277.597137,147.460876 286.807159,138.356354 
	C287.722717,140.098099 289.476349,142.182724 289.909576,144.512863 
	C290.879578,149.729645 294.456268,152.579041 298.799652,153.655609 
	C311.220612,156.734299 323.800171,159.177689 336.335205,161.785187 
	C337.747223,162.078918 339.273132,161.824936 341.116241,161.824936 
	C338.316284,153.286026 335.625488,145.079956 332.934692,136.873901 
	C333.480225,136.533386 334.025757,136.192856 334.571289,135.852341 
	C341.929993,138.099899 349.332520,140.389099 355.226868,145.761337 
	C359.939423,150.056503 359.864868,152.351303 355.418671,156.988693 
	C353.372437,159.122940 351.112061,161.051910 348.582184,163.416626 
	C349.702423,164.068283 350.420593,164.728821 351.250977,164.932907 
	C364.977753,168.306900 378.678101,171.811142 392.490723,174.793671 
	C395.232635,175.385696 398.634521,174.439941 401.344208,173.289673 
	C404.979004,171.746643 407.794189,171.106461 410.423279,174.883347 
	C413.363800,179.107620 417.056763,182.852921 419.653625,187.259644 
	C422.503510,192.095795 421.463715,194.411636 416.237549,196.162811 
	C405.994812,199.594910 395.662598,202.760010 385.033691,205.653275 
	C386.403595,199.582169 388.107239,193.893387 389.859436,188.042633 
	C388.864105,187.615280 388.150818,187.202011 387.382019,186.994568 
	C368.764374,181.970795 350.264069,176.426605 331.474091,172.158020 
	C319.384064,169.411484 306.878723,168.445343 294.524933,166.971512 
	C293.078461,166.798950 290.777618,168.080475 289.973602,169.372772 
	C288.074036,172.426056 286.837860,175.892090 285.220062,179.439774 
	C285.954346,179.761322 286.648865,180.157730 287.395294,180.378983 
	C312.894104,187.937378 338.252289,195.977127 365.174622,197.192398 
	C372.407776,197.518890 380.601990,197.463196 384.453064,205.987000 
z"/>
<path fill="#FF9350" opacity="1.000000" stroke="none" 
	d="
M161.915375,231.211594 
	C161.309830,238.256287 160.579971,245.293030 160.128174,252.347565 
	C159.465073,262.701172 159.555023,262.693146 169.298050,266.476685 
	C173.577057,268.138367 178.543304,268.966064 179.541046,274.733734 
	C180.685837,281.351349 180.050400,287.692535 176.468445,293.503479 
	C174.962357,295.946808 173.313675,296.053589 170.739349,294.263184 
	C166.666122,291.430420 162.157150,289.206268 157.755844,286.869019 
	C154.464920,285.121429 152.380661,285.443939 150.536041,289.551147 
	C145.043900,301.779968 135.733337,310.729309 124.303474,317.527802 
	C123.119385,318.232086 121.696526,318.534912 120.184151,319.098724 
	C124.367210,310.603821 128.556122,302.704041 132.159363,294.545593 
	C134.227737,289.862366 135.446686,284.788025 136.850906,279.833893 
	C137.583878,277.247986 136.962784,275.367340 134.198044,273.736084 
	C126.799713,269.370850 120.296150,263.145782 109.832878,264.072968 
	C112.803406,250.489426 113.536552,237.378799 110.918709,223.617676 
	C106.643448,225.709946 102.833481,227.636322 98.970917,229.450699 
	C92.799080,232.349823 89.616982,231.783493 85.595764,226.241592 
	C83.050789,222.734177 81.274086,218.669296 78.789642,214.201340 
	C86.406708,212.283401 92.838745,210.797287 99.194458,209.035828 
	C112.557930,205.332230 113.432823,204.184387 110.931976,190.534500 
	C109.587341,183.195374 107.497147,175.972931 105.372971,168.807632 
	C104.652168,166.376205 103.029716,164.092499 101.402084,162.078445 
	C99.144669,159.285110 99.386559,157.410385 102.619926,155.803909 
	C109.719566,152.276520 128.489655,154.970673 133.972351,160.667130 
	C135.093399,161.831879 135.972610,164.552673 135.383286,165.823471 
	C131.826477,173.493225 132.775589,181.455093 133.044861,190.594727 
	C135.581406,188.946243 137.497849,187.596283 139.512878,186.414398 
	C142.998566,184.369934 145.730087,184.205322 149.818527,186.772186 
	C158.624344,192.300705 159.267151,200.589539 159.911087,209.282364 
	C160.390091,215.748749 160.846725,222.216782 161.651825,229.286804 
	C161.965347,230.330215 161.940353,230.770905 161.915375,231.211594 
M128.184265,250.936081 
	C129.294159,256.977234 132.727020,258.872620 140.933792,257.543671 
	C141.314850,239.813675 141.909836,221.999039 139.137009,204.188889 
	C129.271851,206.273804 128.804535,206.251678 128.360306,215.633713 
	C127.818291,227.081146 128.161850,238.570480 128.184265,250.936081 
M144.928665,211.523193 
	C145.125854,212.323975 145.261276,213.146896 145.538040,213.919159 
	C145.801407,214.653961 146.212418,215.335846 146.558517,216.041000 
	C146.938522,215.907349 147.318512,215.773697 147.698517,215.640060 
	C146.679596,211.427002 145.660660,207.213943 144.641739,203.000885 
	C143.998734,203.166199 143.355743,203.331512 142.712738,203.496826 
	C143.397293,205.916153 144.081833,208.335480 144.928665,211.523193 
z"/>
<path fill="#FF9350" opacity="1.000000" stroke="none" 
	d="
M161.952194,231.552246 
	C161.940353,230.770905 161.965347,230.330215 161.996826,229.559250 
	C171.365097,224.897690 180.755264,220.626328 190.077866,216.212280 
	C195.533707,213.629089 195.633270,212.761017 191.281021,208.582443 
	C185.666519,203.191940 179.991745,197.864212 174.620941,191.398880 
	C177.450806,191.825150 180.285400,192.586029 183.108673,192.546158 
	C184.681870,192.523956 187.349136,191.453979 187.626297,190.370789 
	C190.288284,179.966949 192.545731,169.459610 195.201355,157.735611 
	C186.364197,159.844269 179.807327,162.661102 174.400803,167.750977 
	C162.457916,178.994354 163.211243,178.518326 148.464615,170.043350 
	C145.498611,168.338760 143.333252,165.241013 140.084381,162.093521 
	C158.335754,157.507309 174.089264,150.538086 189.333420,142.385788 
	C191.402847,141.279083 193.199356,139.371613 194.664551,137.480331 
	C198.945480,131.954514 201.899399,130.884781 208.429779,133.033463 
	C209.694458,133.449585 210.962860,133.862228 212.201965,134.347000 
	C220.650299,137.652069 222.284760,140.640427 219.118973,149.264694 
	C214.133255,162.846802 209.295609,176.541611 200.187241,188.162796 
	C198.855759,189.861603 198.258224,192.135635 197.044174,194.736771 
	C204.157578,195.089600 209.176147,197.428284 212.789368,202.694504 
	C213.373703,203.546158 216.180725,203.714676 217.442291,203.112915 
	C222.693344,200.608139 227.881226,197.905914 232.824982,194.844452 
	C236.193222,192.758652 239.085510,192.831894 241.875198,195.341263 
	C244.945786,198.103348 248.330200,200.731659 250.645447,204.065765 
	C253.779449,208.578934 252.054764,212.506775 246.694244,213.729477 
	C238.113327,215.686752 229.441574,217.245758 220.564011,219.021973 
	C226.786072,231.045090 230.546509,243.542282 232.442993,256.521179 
	C234.083160,267.745880 232.515518,278.502014 225.080078,287.670441 
	C223.529160,289.582794 221.638336,291.315796 219.627853,292.741913 
	C212.219757,297.996674 211.138779,297.909027 204.227188,292.311829 
	C199.454514,288.446808 194.695847,284.564514 189.182587,280.081390 
	C194.348206,278.214447 198.889420,276.832886 203.178482,274.893707 
	C204.867554,274.130035 206.984589,272.266815 207.221024,270.656738 
	C209.304886,256.466064 208.884674,242.440475 202.977722,229.031204 
	C202.654556,228.297592 202.054581,227.685928 201.116806,226.355438 
	C196.257828,229.717117 191.515869,232.996033 186.776749,236.279053 
	C186.229019,236.658493 185.692184,237.054153 185.158676,237.453491 
	C173.437485,246.226852 168.877945,245.132996 161.952194,231.552246 
z"/>
<path fill="#FFF3EB" opacity="1.000000" stroke="none" 
	d="
M384.467743,206.011047 
	C380.601990,197.463196 372.407776,197.518890 365.174622,197.192398 
	C338.252289,195.977127 312.894104,187.937378 287.395294,180.378983 
	C286.648865,180.157730 285.954346,179.761322 285.220062,179.439774 
	C286.837860,175.892090 288.074036,172.426056 289.973602,169.372772 
	C290.777618,168.080475 293.078461,166.798950 294.524933,166.971512 
	C306.878723,168.445343 319.384064,169.411484 331.474091,172.158020 
	C350.264069,176.426605 368.764374,181.970795 387.382019,186.994568 
	C388.150818,187.202011 388.864105,187.615280 389.859436,188.042633 
	C388.107239,193.893387 386.403595,199.582169 384.608612,205.675140 
	C384.517303,206.079346 384.482422,206.035095 384.467743,206.011047 
z"/>
<path fill="#F1E5E3" opacity="1.000000" stroke="none" 
	d="
M220.046204,409.571838 
	C219.940689,408.156952 219.585129,407.011932 219.958710,406.204132 
	C220.826538,404.327637 221.992706,401.188538 223.134903,401.145691 
	C225.193848,401.068451 229.015137,402.794891 229.074936,403.927673 
	C229.202621,406.346497 227.947403,409.389679 226.229340,411.200287 
	C224.493591,413.029572 221.643265,413.081177 220.046204,409.571838 
z"/>
<path fill="#F1E5E3" opacity="1.000000" stroke="none" 
	d="
M245.307465,410.827698 
	C244.897247,409.040161 244.320984,407.514374 244.591721,406.157593 
	C245.064835,403.786530 244.749405,400.009705 248.824371,401.042328 
	C250.797653,401.542328 253.478012,403.373260 253.881760,405.067780 
	C254.665497,408.357300 252.839127,411.253571 249.195068,412.047028 
	C248.087463,412.288208 246.753220,411.488525 245.307465,410.827698 
z"/>
<path fill="#F2E4E1" opacity="1.000000" stroke="none" 
	d="
M204.818207,404.273468 
	C204.862793,405.158386 204.948624,405.684509 204.809433,406.142242 
	C203.868088,409.237823 202.708832,412.377899 198.734009,412.068878 
	C197.482162,411.971558 195.312744,410.349274 195.345978,409.494171 
	C195.455093,406.684875 196.382523,403.907349 196.995560,401.117615 
	C199.582153,402.039429 202.168747,402.961212 204.818207,404.273468 
z"/>
<path fill="#FFF4EC" opacity="1.000000" stroke="none" 
	d="
M357.123962,229.883575 
	C357.192566,230.045425 357.083832,230.384567 356.787048,230.573166 
	C356.714874,230.302048 356.830719,230.181473 357.123962,229.883575 
z"/>
<path fill="#FFF3EB" opacity="1.000000" stroke="none" 
	d="
M128.153336,250.488892 
	C128.161850,238.570480 127.818291,227.081146 128.360306,215.633713 
	C128.804535,206.251678 129.271851,206.273804 139.137009,204.188889 
	C141.909836,221.999039 141.314850,239.813675 140.933792,257.543671 
	C132.727020,258.872620 129.294159,256.977234 128.153336,250.488892 
z"/>
<path fill="#FFE5D5" opacity="1.000000" stroke="none" 
	d="
M144.847519,211.139008 
	C144.081833,208.335480 143.397293,205.916153 142.712738,203.496826 
	C143.355743,203.331512 143.998734,203.166199 144.641739,203.000885 
	C145.660660,207.213943 146.679596,211.427002 147.698517,215.640060 
	C147.318512,215.773697 146.938522,215.907349 146.558517,216.041000 
	C146.212418,215.335846 145.801407,214.653961 145.538040,213.919159 
	C145.261276,213.146896 145.125854,212.323975 144.847519,211.139008 
z"/>
</svg>
